HIERARCHY
ROOT Hips
{
	OFFSET 0.00000 0.00000 0.00000
	CHANNELS 6 Xposition Yposition Zposition Zrotation Yrotation Xrotation 
	JOINT LHipJoint
	{
		OFFSET 0 0 0
		CHANNELS 3 Zrotation Yrotation Xrotation
		JOINT LeftHip
		{
			OFFSET 1.60223 -1.58443 0.78595
			CHANNELS 3 Zrotation Yrotation Xrotation
			JOINT LeftKnee
			{
				OFFSET 2.21690 -6.09089 0.00000
				CHANNELS 3 Zrotation Yrotation Xrotation
				JOINT LeftAnkle
				{
					OFFSET 2.34805 -6.45122 0.00000
					CHANNELS 3 Zrotation Yrotation Xrotation
					JOINT LeftToe
					{
						OFFSET 0.35452 -0.97402 1.38549
						CHANNELS 3 Zrotation Yrotation Xrotation
						End Site
						{
							OFFSET 0.00000 -0.00000 0.82816
						}
					}
				}
			}
		}
	}
	JOINT RHipJoint
	{
		OFFSET 0 0 0
		CHANNELS 3 Zrotation Yrotation Xrotation
		JOINT RightHip
		{
			OFFSET -1.56524 -1.58443 0.78595
			CHANNELS 3 Zrotation Yrotation Xrotation
			JOINT RightKnee
			{
				OFFSET -2.15558 -5.92241 0.00000
				CHANNELS 3 Zrotation Yrotation Xrotation
				JOINT RightAnkle
				{
					OFFSET -2.35077 -6.45870 0.00000
					CHANNELS 3 Zrotation Yrotation Xrotation
					JOINT RightToe
					{
						OFFSET -0.26910 -0.73935 1.33295
						CHANNELS 3 Zrotation Yrotation Xrotation
						End Site
						{
							OFFSET -0.00000 -0.00000 0.75962
						}
					}
				}
			}
		}
	}
	JOINT lowerback
	{
		OFFSET 0 0 0
		CHANNELS 3 Zrotation Yrotation Xrotation
		JOINT Chest
		{
			OFFSET -0.05489 1.97104 -0.02993
			CHANNELS 3 Zrotation Yrotation Xrotation
			JOINT Chest2
			{
				OFFSET -0.00702 1.94230 0.13626
				CHANNELS 3 Zrotation Yrotation Xrotation
				JOINT lowerneck
				{
					OFFSET 0 0 0
					CHANNELS 3 Zrotation Yrotation Xrotation
					JOINT Neck
					{
						OFFSET -0.07858 1.62869 -0.02510
						CHANNELS 3 Zrotation Yrotation Xrotation
						JOINT Head
						{
							OFFSET 0.13978 1.59213 -0.29859
							CHANNELS 3 Zrotation Yrotation Xrotation
							End Site
							{
								OFFSET 0.05353 1.64420 -0.10000
							}
						}
					}
				}
				JOINT LeftCollar
				{
					OFFSET 0 0 0
					CHANNELS 3 Zrotation Yrotation Xrotation
					JOINT LeftShoulder
					{
						OFFSET 3.48263 1.15278 0.52941
CHANNELS 3 Zrotation Xrotation Yrotation
						JOINT LeftElbow
						{
OFFSET 0 -4.592070 -0.000000
CHANNELS 3 Zrotation Xrotation Yrotation
							JOINT LeftWrist
							{
OFFSET 0 -2.981090 -0.000000
CHANNELS 3 Zrotation Xrotation Yrotation
								JOINT lhand
								{
									OFFSET 0 0 0
CHANNELS 3 Zrotation Xrotation Yrotation
									JOINT LFingers
									{
OFFSET 0 -0.480200 -0.000000
CHANNELS 3 Zrotation Xrotation Yrotation
										End Site
										{
OFFSET 0 -0.387150 -0.000000
										}
									}
								}
								JOINT LThumb
								{
OFFSET 0 0.000000 0.000000
CHANNELS 3 Zrotation Xrotation Yrotation
									End Site
									{
OFFSET 0 -0.393060 0.393060
									}
								}
							}
						}
					}
				}
				JOINT RightCollar
				{
					OFFSET 0 0 0
					CHANNELS 3 Zrotation Yrotation Xrotation
					JOINT RightShoulder
					{
						OFFSET -3.52496 1.12722 0.24548
CHANNELS 3 Zrotation Xrotation Yrotation
						JOINT RightElbow
						{
OFFSET 0 -4.765080 -0.000000
CHANNELS 3 Zrotation Xrotation Yrotation
							JOINT RightWrist
							{
OFFSET 0 -2.789020 -0.000000
CHANNELS 3 Zrotation Xrotation Yrotation
								JOINT rhand
								{
									OFFSET 0 0 0
CHANNELS 3 Zrotation Xrotation Yrotation
									JOINT RFingers
									{
OFFSET 0 -0.721300 -0.000000
CHANNELS 3 Zrotation Xrotation Yrotation
										End Site
										{
OFFSET 0 -0.581530 -0.000000
										}
									}
								}
								JOINT RThumb
								{
OFFSET 0 0.000000 0.000000
CHANNELS 3 Zrotation Xrotation Yrotation
									End Site
									{
OFFSET 0 -0.590410 0.590410
									}
								}
							}
						}
					}
				}
			}
		}
	}
}
MOTION
Frames: 4
Frame Time: 0.008333333333333333
-3.512446 16.324448 8.473896 -552.112067 787.861432 -903.937835 0.000000 0.000000 0.000000 -23.813972 1.172930 -17.114536 3.281927 11.138022 32.746716 -3.569972 -33.148627 0.885160 0.013647 -0.739059 -2.031225 0.000000 0.000000 0.000000 12.523639 -2.270831 -34.530383 -2.857532 -10.460724 30.481938 0.371577 16.918075 -7.817975 -3.445154 11.382722 -33.582170 -7.157505 0.122821 1.558590 -6.206659 0.572609 2.775590 -2.405991 0.354510 2.015944 -18.584431 -15.658818 9.428844 33.529303 -19.730730 -18.021244 13.820591 -10.990953 -0.839990 0.000000 0.000000 0.000000 -2.049167 -6.556212 -44.694488 135.244657 -50.647807 97.950538 40.317101 48.569589 -20.354257 0.000000 0.000000 0.000000 -7.125000 0.000000 0.000000 13.017292 55.449747 -3.380936 0.000000 0.000000 0.000000 -179.733486 -63.482860 132.722370 -8.520975 -14.393699 -1.077927 -56.616608 60.714785 -70.841056 0.000000 0.000000 0.000000 7.125000 0.000000 0.000000 10.984070 -48.457135 15.583626
-3.227062 16.221378 8.286119 -547.837932 789.859563 -900.862499 0.000000 0.000000 0.000000 -22.347293 0.215083 -15.400939 3.793109 11.878639 35.305697 -2.898289 -32.063021 -3.691924 0.000624 0.129070 0.354635 0.000000 0.000000 0.000000 14.665035 1.758230 -29.010230 -3.433351 -11.364076 33.519561 -0.471040 10.024281 -13.176194 -3.423104 11.349920 -33.469842 -5.102206 -0.824883 0.886443 -6.400649 -0.664361 2.679203 -3.762932 -0.236414 2.267085 -17.215219 -15.279943 7.145287 30.166245 -19.752546 -13.910944 11.969392 -10.633202 0.009871 0.000000 0.000000 0.000000 0.505647 -2.808936 -35.194240 135.062586 -50.737588 97.809638 38.910751 44.113603 -21.193751 0.000000 0.000000 0.000000 -7.125000 0.000000 0.000000 11.391661 56.103261 -3.131067 0.000000 0.000000 0.000000 -191.305371 -73.205161 134.701267 -8.673293 -14.637996 -1.116330 -57.078309 39.031851 -74.986700 0.000000 0.000000 0.000000 7.125000 0.000000 0.000000 15.028835 -50.379700 21.336668
-2.865261 16.127810 8.077469 -539.433346 796.529447 -892.938372 0.000000 0.000000 0.000000 -21.172769 -0.152326 -15.295785 4.777603 13.127160 39.849250 -1.191843 -26.392328 -10.163987 0.003068 0.332342 0.913193 0.000000 0.000000 0.000000 19.305012 4.385932 -20.969347 -3.553676 -11.539808 34.125008 -0.130811 15.409603 -12.186066 -4.378160 12.646311 -38.060016 -2.313861 -0.189792 -0.567609 -5.680329 0.076636 1.916124 -4.567305 0.128823 2.302871 -16.352392 -13.908177 6.107686 27.138344 -18.085048 -11.948077 10.895528 -9.605999 -0.154281 0.000000 0.000000 0.000000 0.065324 2.704907 -21.555985 136.313089 -50.108643 98.773518 36.175799 38.249413 -21.650367 0.000000 0.000000 0.000000 -7.125000 0.000000 0.000000 8.196254 55.977662 -2.217591 0.000000 0.000000 0.000000 -260.658451 -82.628262 89.568284 -10.326008 -17.247244 -1.570769 -57.807532 7.416277 -79.896408 0.000000 0.000000 0.000000 7.125000 0.000000 0.000000 20.197606 -52.246962 28.708303
-2.376765 16.155749 7.862753 -509.565499 800.658788 -861.877149 0.000000 0.000000 0.000000 -17.947246 -4.336574 -20.035012 7.920796 16.056938 52.271095 0.117927 -15.260960 -11.940232 0.869761 -5.936971 -16.604535 0.000000 0.000000 0.000000 24.679704 2.317202 -11.325385 -1.033340 -6.456539 18.117866 -0.468539 17.915869 -16.581941 -2.369873 9.595728 -27.678487 2.344261 0.929036 -2.257149 -4.071545 1.296908 0.612998 -5.480364 0.726801 2.046014 -15.810120 -12.043586 6.382696 25.061803 -15.527035 -11.995308 10.459773 -8.291576 -1.053839 0.000000 0.000000 0.000000 -2.437157 8.563488 -7.074115 139.379173 -48.433022 101.097464 38.844866 35.636641 -20.296549 0.000000 0.000000 0.000000 -7.125000 0.000000 0.000000 11.303932 55.023985 -2.809581 0.000000 0.000000 0.000000 27.448905 -71.092053 31.660810 -13.798476 -22.444727 -2.751397 -73.328914 -27.847729 -83.431114 0.000000 0.000000 0.000000 7.125000 0.000000 0.000000 24.309031 -54.908604 34.381953
